<svg width="21" height="20" viewBox="0 0 21 20" fill="none" xmlns="http://www.w3.org/2000/svg">
<path d="M19.1313 8.96094L18.5532 2.85547C18.5239 2.53906 18.272 2.28906 17.9556 2.25781L11.8501 1.67969H11.8423C11.7798 1.67969 11.7309 1.69922 11.6938 1.73633L2.54735 10.8828C2.52925 10.9009 2.51488 10.9223 2.50508 10.946C2.49528 10.9696 2.49023 10.9949 2.49023 11.0205C2.49023 11.0461 2.49528 11.0714 2.50508 11.095C2.51488 11.1187 2.52925 11.1401 2.54735 11.1582L9.65282 18.2637C9.68993 18.3008 9.73876 18.3203 9.79149 18.3203C9.84423 18.3203 9.89305 18.3008 9.93016 18.2637L19.0766 9.11719C19.1157 9.07617 19.1352 9.01953 19.1313 8.96094ZM9.78954 16.3027L4.50829 11.0215L12.3149 3.21484L17.1391 3.67188L17.5962 8.49609L9.78954 16.3027ZM14.0923 5C13.145 5 12.3735 5.77148 12.3735 6.71875C12.3735 7.66602 13.145 8.4375 14.0923 8.4375C15.0395 8.4375 15.811 7.66602 15.811 6.71875C15.811 5.77148 15.0395 5 14.0923 5ZM14.0923 7.34375C13.7466 7.34375 13.4673 7.06445 13.4673 6.71875C13.4673 6.37305 13.7466 6.09375 14.0923 6.09375C14.438 6.09375 14.7173 6.37305 14.7173 6.71875C14.7173 7.06445 14.438 7.34375 14.0923 7.34375Z" fill="black"/>
</svg>
