<svg width="16" height="16" viewBox="0 0 16 16" fill="none" xmlns="http://www.w3.org/2000/svg">
<g clip-path="url(#clip0_393_11)">
<path d="M5.82939 8.82716C5.82939 8.62673 5.66681 8.46436 5.46622 8.46436H4.19891C3.99854 8.46436 3.83594 8.62673 3.83594 8.82716V10.0943C3.83594 10.295 3.99854 10.4574 4.19891 10.4574H5.46622C5.66681 10.4574 5.82939 10.295 5.82939 10.0943V8.82716Z" fill="black"/>
<path d="M8.99715 8.82716C8.99715 8.62673 8.83455 8.46436 8.63435 8.46436H7.36688C7.16651 8.46436 7.00391 8.62673 7.00391 8.82716V10.0943C7.00391 10.295 7.16651 10.4574 7.36688 10.4574H8.63435C8.83455 10.4574 8.99715 10.295 8.99715 10.0943V8.82716Z" fill="black"/>
<path d="M12.1643 8.82716C12.1643 8.62673 12.0017 8.46436 11.8014 8.46436H10.5341C10.3335 8.46436 10.1709 8.62673 10.1709 8.82716V10.0943C10.1709 10.295 10.3335 10.4574 10.5341 10.4574H11.8014C12.0017 10.4574 12.1643 10.295 12.1643 10.0943V8.82716Z" fill="black"/>
<path d="M5.82939 11.9948C5.82939 11.7941 5.66681 11.6318 5.46622 11.6318H4.19891C3.99854 11.6318 3.83594 11.7941 3.83594 11.9948V13.2618C3.83594 13.4623 3.99854 13.6247 4.19891 13.6247H5.46622C5.66681 13.6247 5.82939 13.4623 5.82939 13.2618V11.9948Z" fill="black"/>
<path d="M8.99715 11.9948C8.99715 11.7941 8.83455 11.6318 8.63435 11.6318H7.36688C7.16651 11.6318 7.00391 11.7941 7.00391 11.9948V13.2618C7.00391 13.4623 7.16651 13.6247 7.36688 13.6247H8.63435C8.83455 13.6247 8.99715 13.4623 8.99715 13.2618V11.9948Z" fill="black"/>
<path d="M12.1643 11.9948C12.1643 11.7941 12.0017 11.6318 11.8015 11.6318H10.5341C10.3335 11.6318 10.1709 11.7941 10.1709 11.9948V13.2618C10.1709 13.4623 10.3335 13.6247 10.5341 13.6247H11.8015C12.0017 13.6247 12.1643 13.4623 12.1643 13.2618V11.9948Z" fill="black"/>
<path d="M14.4304 1.78136V3.71683C14.4304 4.59164 13.7208 5.2966 12.8461 5.2966H11.8466C10.9719 5.2966 10.2528 4.59164 10.2528 3.71683V1.77441H5.74797V3.71683C5.74797 4.59164 5.02891 5.2966 4.1543 5.2966H3.15464C2.28 5.2966 1.57035 4.59164 1.57035 3.71683V1.78136C0.805899 1.8044 0.177734 2.43696 0.177734 3.21446V14.5572C0.177734 15.3493 0.819764 15.9999 1.61188 15.9999H14.3889C15.1798 15.9999 15.823 15.348 15.823 14.5572V3.21446C15.823 2.43696 15.1949 1.8044 14.4304 1.78136ZM13.9662 13.8509C13.9662 14.1932 13.6887 14.4709 13.3462 14.4709H2.62723C2.28478 14.4709 2.00723 14.1932 2.00723 13.8509V7.99193C2.00723 7.64948 2.28475 7.37176 2.62723 7.37176H13.3462C13.6886 7.37176 13.9662 7.64948 13.9662 7.99193L13.9662 13.8509Z" fill="black"/>
<path d="M3.15079 4.25917H4.1394C4.43947 4.25917 4.68277 4.01622 4.68277 3.71615V0.543208C4.68277 0.243105 4.43947 0 4.1394 0H3.15079C2.85069 0 2.60742 0.243105 2.60742 0.543208V3.71615C2.60742 4.01622 2.85069 4.25917 3.15079 4.25917Z" fill="black"/>
<path d="M11.8344 4.25917H12.823C13.1228 4.25917 13.3661 4.01622 13.3661 3.71615V0.543208C13.3662 0.243105 13.1229 0 12.823 0H11.8344C11.5343 0 11.291 0.243105 11.291 0.543208V3.71615C11.291 4.01622 11.5343 4.25917 11.8344 4.25917Z" fill="black"/>
</g>
<defs>
<clipPath id="clip0_393_11">
<rect width="16" height="16" fill="white"/>
</clipPath>
</defs>
</svg>
