<svg width="27" height="28" viewBox="0 0 27 28" fill="none" xmlns="http://www.w3.org/2000/svg">
<circle cx="13.3333" cy="14" r="13.3333" fill="#8BC63D"/>
<g clip-path="url(#clip0_0_879)">
<path d="M20.9495 8.06004L20.5191 7.69029C19.8047 7.07639 18.7312 7.14482 18.1005 7.84423L10.9008 15.8273L8.72756 13.9555C8.01392 13.3409 6.94024 13.408 6.30877 14.1066L5.92824 14.5277C5.61965 14.869 5.45942 15.3191 5.48269 15.779C5.50619 16.2386 5.71122 16.67 6.05301 16.9785L10.0367 20.6265C10.3816 20.9504 10.8438 21.1193 11.3163 21.0942C11.7887 21.0692 12.2304 20.8522 12.5391 20.4935L21.1337 10.5072C21.4339 10.1583 21.5832 9.70447 21.5486 9.24558C21.514 8.78636 21.2986 8.35998 20.9495 8.06004Z" fill="white"/>
</g>
<defs>
<clipPath id="clip0_0_879">
<rect width="16.0731" height="16.0731" fill="white" transform="translate(5.48047 6.1474)"/>
</clipPath>
</defs>
</svg>
