<svg width="27" height="27" viewBox="0 0 27 27" fill="none" xmlns="http://www.w3.org/2000/svg">
<circle cx="13.6668" cy="13.3333" r="13.3333" fill="#C7C7C7"/>
<g clip-path="url(#clip0_1166_2528)">
<path d="M11.3161 13.3333L7.39696 17.2524C6.74778 17.9019 6.74778 18.9554 7.39696 19.6046C8.04579 20.2534 9.09928 20.2534 9.74806 19.6046L13.6676 15.6848L17.5863 19.6046C18.2359 20.2534 19.2887 20.2534 19.9378 19.6046C20.5877 18.9551 20.587 17.9016 19.9378 17.2524L16.0191 13.3333L19.9382 9.41484C20.5877 8.76494 20.5877 7.71181 19.9382 7.06262C19.2887 6.41272 18.2359 6.41272 17.5863 7.06262L13.6676 10.9821L9.74806 7.06267C9.09923 6.41276 8.04574 6.41276 7.39656 7.06267C6.74737 7.71186 6.74737 8.76386 7.39656 9.41341L11.3161 13.3333Z" fill="white"/>
</g>
<defs>
<clipPath id="clip0_1166_2528">
<rect width="13.516" height="13.516" fill="white" transform="translate(6.90918 6.57536)"/>
</clipPath>
</defs>
</svg>
