<svg width="27" height="28" viewBox="0 0 27 28" fill="none" xmlns="http://www.w3.org/2000/svg">
<circle cx="13.6668" cy="14" r="13.3333" fill="#D55253"/>
<g clip-path="url(#clip0_0_884)">
<path d="M11.3161 13.9999L7.39696 17.9191C6.74778 18.5686 6.74778 19.6221 7.39696 20.2713C8.04579 20.9201 9.09928 20.9201 9.74806 20.2713L13.6676 16.3514L17.5863 20.2713C18.2359 20.9201 19.2887 20.9201 19.9378 20.2713C20.5877 19.6218 20.587 18.5683 19.9378 17.9191L16.0191 13.9999L19.9382 10.0815C20.5877 9.43162 20.5877 8.3785 19.9382 7.72931C19.2887 7.07941 18.2359 7.07941 17.5863 7.72931L13.6676 11.6488L9.74806 7.72936C9.09923 7.07945 8.04574 7.07945 7.39656 7.72936C6.74737 8.37854 6.74737 9.43055 7.39656 10.0801L11.3161 13.9999Z" fill="white"/>
</g>
<defs>
<clipPath id="clip0_0_884">
<rect width="13.516" height="13.516" fill="white" transform="translate(6.90918 7.24207)"/>
</clipPath>
</defs>
</svg>
