<svg width="27" height="27" viewBox="0 0 27 27" fill="none" xmlns="http://www.w3.org/2000/svg">
<circle cx="13.3333" cy="13.3333" r="13.3333" fill="#C7C7C7"/>
<g clip-path="url(#clip0_1166_2523)">
<path d="M20.9495 7.39334L20.5191 7.02359C19.8047 6.40968 18.7312 6.47811 18.1005 7.17753L10.9008 15.1606L8.72756 13.2888C8.01392 12.6742 6.94024 12.7413 6.30877 13.4399L5.92824 13.861C5.61965 14.2023 5.45942 14.6524 5.48269 15.1123C5.50619 15.5719 5.71122 16.0033 6.05301 16.3118L10.0367 19.9598C10.3816 20.2837 10.8438 20.4526 11.3163 20.4275C11.7887 20.4025 12.2304 20.1855 12.5391 19.8268L21.1337 9.84051C21.4339 9.49161 21.5832 9.03777 21.5486 8.57888C21.514 8.11966 21.2986 7.69328 20.9495 7.39334Z" fill="white"/>
</g>
<defs>
<clipPath id="clip0_1166_2523">
<rect width="16.0731" height="16.0731" fill="white" transform="translate(5.48047 5.48068)"/>
</clipPath>
</defs>
</svg>
