<svg width="17" height="16" viewBox="0 0 17 16" fill="none" xmlns="http://www.w3.org/2000/svg">
<path d="M8.80658 0C7.25418 0 5.73665 0.469192 4.44588 1.34824C3.15511 2.22729 2.14907 3.47672 1.555 4.93853C0.96092 6.40034 0.805483 8.00887 1.10834 9.56072C1.4112 11.1126 2.15875 12.538 3.25646 13.6569C4.35417 14.7757 5.75274 15.5376 7.2753 15.8463C8.79787 16.155 10.3761 15.9965 11.8103 15.391C13.2445 14.7855 14.4704 13.7602 15.3328 12.4446C16.1953 11.129 16.6556 9.58225 16.6556 8C16.6533 5.87901 15.8255 3.84558 14.3541 2.34582C12.8826 0.846052 10.8875 0.00241984 8.80658 0ZM2.07882 8C2.08035 7.22082 2.21309 6.44769 2.47127 5.71428H5.4427L8.24593 8L6.67612 10.1103C6.59517 10.2203 6.55588 10.3564 6.56546 10.4936C6.57503 10.6308 6.63284 10.7599 6.72826 10.8571L8.24593 12.5714V14.8286C6.56582 14.6841 5.00004 13.9023 3.85812 12.6379C2.71621 11.3735 2.08127 9.71851 2.07882 8ZM11.8537 14.1057L13.2811 9.70571C13.3014 9.60167 13.293 9.49392 13.2566 9.39451C13.2203 9.2951 13.1575 9.20796 13.0753 9.14286L8.24593 5.14286L9.36722 4H12.3274C12.4451 3.99991 12.5597 3.96212 12.6551 3.89197C12.7504 3.82183 12.8218 3.72288 12.8589 3.60914L13.1365 2.76C13.987 3.48748 14.6473 4.41864 15.058 5.47007C15.4688 6.5215 15.6173 7.66036 15.4902 8.78463C15.3631 9.90891 14.9643 10.9835 14.3297 11.9121C13.695 12.8408 12.8443 13.5945 11.8537 14.1057Z" fill="black"/>
</svg>
