<svg width="21" height="20" viewBox="0 0 21 20" fill="none" xmlns="http://www.w3.org/2000/svg">
<g clip-path="url(#clip0_0_2083)">
<path d="M16.7745 5.97649H9.55882L8.12353 4.27061C8.07525 4.21257 8.00289 4.18002 7.92745 4.18237H2.10588C1.21706 4.18884 0.5 4.91119 0.5 5.80002V16.2922C0.501078 17.184 1.22382 17.9068 2.11569 17.9079H16.7745C17.6664 17.9068 18.3891 17.184 18.3902 16.2922V7.59217C18.3891 6.70031 17.6664 5.97757 16.7745 5.97649Z" fill="#C7C7C7"/>
<path d="M18.8941 3.88634H11.6765L10.2412 2.18046C10.1929 2.12242 10.1205 2.08987 10.0451 2.09222H4.22548C3.41901 2.09354 2.73705 2.68933 2.62744 3.4883H7.93528C8.21361 3.48761 8.47788 3.61046 8.65685 3.82359L9.88234 5.28046H16.7745C18.0492 5.28261 19.0821 6.31551 19.0843 7.59026V15.802C19.8925 15.7012 20.4993 15.0146 20.5 14.2001V5.50006C20.4979 4.61276 19.7813 3.89281 18.8941 3.88634Z" fill="#C7C7C7"/>
</g>
<defs>
<clipPath id="clip0_0_2083">
<rect width="20" height="20" fill="white" transform="translate(0.5)"/>
</clipPath>
</defs>
</svg>
