<svg width="89" height="89" viewBox="0 0 89 89" fill="none" xmlns="http://www.w3.org/2000/svg">
<rect x="0.5" y="0.5" width="88" height="88" rx="4.5" fill="#F4F4F4" stroke="#C7C7C7" stroke-dasharray="8 8"/>
<path d="M39.625 37.4099H42.5117V50.6248C42.5117 50.7967 42.6523 50.9373 42.8242 50.9373H45.168C45.3398 50.9373 45.4805 50.7967 45.4805 50.6248V37.4099H48.375C48.6367 37.4099 48.7812 37.1092 48.6211 36.906L44.2461 31.367C44.2169 31.3296 44.1795 31.2994 44.1369 31.2786C44.0942 31.2579 44.0474 31.2471 44 31.2471C43.9526 31.2471 43.9058 31.2579 43.8631 31.2786C43.8205 31.2994 43.7831 31.3296 43.7539 31.367L39.3789 36.9021C39.2188 37.1092 39.3633 37.4099 39.625 37.4099ZM58.2969 49.4529H55.9531C55.7812 49.4529 55.6406 49.5935 55.6406 49.7654V55.781H32.3594V49.7654C32.3594 49.5935 32.2188 49.4529 32.0469 49.4529H29.7031C29.5312 49.4529 29.3906 49.5935 29.3906 49.7654V57.4998C29.3906 58.1912 29.9492 58.7498 30.6406 58.7498H57.3594C58.0508 58.7498 58.6094 58.1912 58.6094 57.4998V49.7654C58.6094 49.5935 58.4688 49.4529 58.2969 49.4529Z" fill="#6F6F6F"/>
</svg>
