<svg width="24" height="24" viewBox="0 0 24 24" fill="none" xmlns="http://www.w3.org/2000/svg">
<g clip-path="url(#clip0_2347_4336)">
<path d="M9 7H1C0.448 7 0 6.552 0 6C0 5.448 0.448 5 1 5H9C9.552 5 10 5.448 10 6C10 6.552 9.552 7 9 7Z" fill="#0C3C60"/>
<path d="M9 19H1C0.448 19 0 18.552 0 18C0 17.448 0.448 17 1 17H9C9.552 17 10 17.448 10 18C10 18.552 9.552 19 9 19Z" fill="#0C3C60"/>
<path d="M9 13H1C0.448 13 0 12.552 0 12C0 11.448 0.448 11 1 11H9C9.552 11 10 11.448 10 12C10 12.552 9.552 13 9 13Z" fill="#0C3C60"/>
<path d="M17 5H13C12.448 5 12 5.448 12 6C12 6.552 12.448 7 13 7H17C19.757 7 22 9.243 22 12C22 14.757 19.757 17 17 17V14.75C17 14.452 16.823 14.182 16.55 14.062C16.277 13.944 15.958 13.997 15.739 14.2L12.239 17.45C12.087 17.592 12 17.791 12 18C12 18.209 12.087 18.408 12.239 18.55L15.739 21.8C15.881 21.931 16.064 22 16.25 22C16.352 22 16.453 21.979 16.55 21.938C16.823 21.818 17 21.548 17 21.25V19C20.86 19 24 15.86 24 12C24 8.14 20.86 5 17 5Z" fill="#0C3C60"/>
</g>
<defs>
<clipPath id="clip0_2347_4336">
<rect width="24" height="24" fill="white"/>
</clipPath>
</defs>
</svg>
