<svg width="20" height="20" viewBox="0 0 20 20" fill="none" xmlns="http://www.w3.org/2000/svg">
<g clip-path="url(#clip0_4498_16991)">
<path d="M7.5 5.83326H0.833333C0.373333 5.83326 0 5.45993 0 4.99993C0 4.53993 0.373333 4.1666 0.833333 4.1666H7.5C7.96 4.1666 8.33333 4.53993 8.33333 4.99993C8.33333 5.45993 7.96 5.83326 7.5 5.83326Z" fill="#E82A86"/>
<path d="M7.5 15.8333H0.833333C0.373333 15.8333 0 15.4599 0 14.9999C0 14.5399 0.373333 14.1666 0.833333 14.1666H7.5C7.96 14.1666 8.33333 14.5399 8.33333 14.9999C8.33333 15.4599 7.96 15.8333 7.5 15.8333Z" fill="#E82A86"/>
<path d="M7.5 10.8333H0.833333C0.373333 10.8333 0 10.46 0 9.99996C0 9.53996 0.373333 9.16663 0.833333 9.16663H7.5C7.96 9.16663 8.33333 9.53996 8.33333 9.99996C8.33333 10.46 7.96 10.8333 7.5 10.8333Z" fill="#E82A86"/>
<path d="M14.1667 4.5H10.8333C10.3733 4.5 10 4.87333 10 5.33333C10 5.79333 10.3733 6.16667 10.8333 6.16667H14.1667C16.4642 6.16667 18.3333 8.03583 18.3333 10.3333C18.3333 12.6308 16.4642 14.5 14.1667 14.5V12.625C14.1667 12.3767 14.0192 12.1517 13.7917 12.0517C13.5642 11.9533 13.2983 11.9975 13.1158 12.1667L10.1992 14.875C10.0725 14.9933 10 15.1592 10 15.3333C10 15.5075 10.0725 15.6733 10.1992 15.7917L13.1158 18.5C13.2342 18.6092 13.3867 18.6667 13.5417 18.6667C13.6267 18.6667 13.7108 18.6492 13.7917 18.615C14.0192 18.515 14.1667 18.29 14.1667 18.0417V16.1667C17.3833 16.1667 20 13.55 20 10.3333C20 7.11667 17.3833 4.5 14.1667 4.5Z" fill="#E82A86"/>
</g>
<defs>
<clipPath id="clip0_4498_16991">
<rect width="20" height="20" fill="white"/>
</clipPath>
</defs>
</svg>
