<svg width="20" height="20" viewBox="0 0 20 20" fill="none" xmlns="http://www.w3.org/2000/svg">
<g clip-path="url(#clip0_4498_16984)">
<path d="M18.6269 1.37297C16.7963 -0.457651 13.8284 -0.457651 11.9978 1.37293L8.08007 5.29067C6.18652 7.1843 6.36183 10.2015 8.08007 11.9198C8.36781 12.2075 8.68617 12.4422 9.02234 12.6348L9.73738 11.9198C10.2064 11.4507 10.0413 10.9024 10.0328 10.5068C9.92992 10.4338 9.8298 10.3549 9.73738 10.2625C8.85562 9.38082 8.81597 7.86934 9.73738 6.94793C9.87421 6.8111 13.572 3.11332 13.655 3.03028C14.5691 2.11625 16.0556 2.11625 16.9696 3.03028C17.8836 3.9443 17.8836 5.43082 16.9696 6.34485L14.38 8.93442C14.4549 9.34875 14.9043 10.3302 14.6732 11.9493C14.6844 11.9382 14.698 11.9311 14.7092 11.9198L18.6269 8.00211C20.4575 6.17149 20.4575 3.2036 18.6269 1.37297Z" fill="#E82A86"/>
<path d="M12.2233 7.77656C11.9356 7.48883 11.6172 7.25422 11.2812 7.06152L10.5661 7.77656C10.0971 8.24555 10.2621 8.79387 10.2706 9.18953C10.3736 9.2625 10.4737 9.34137 10.5661 9.43379C11.4479 10.3155 11.4875 11.827 10.5661 12.7484C10.429 12.8855 6.4249 16.8896 6.34479 16.9697C5.43076 17.8837 3.94424 17.8837 3.03022 16.9697C2.11619 16.0557 2.11619 14.5691 3.03022 13.6551L5.92346 10.7619C5.84858 10.3475 5.39912 9.36605 5.63033 7.74699C5.61904 7.75809 5.60545 7.76531 5.5942 7.77652L1.37291 11.9979C-0.457637 13.8285 -0.457637 16.7964 1.37291 18.627C3.20354 20.4576 6.17139 20.4576 8.00201 18.627L12.2233 14.4057C14.0818 12.5473 13.9802 9.5334 12.2233 7.77656Z" fill="#E82A86"/>
</g>
<defs>
<clipPath id="clip0_4498_16984">
<rect width="20" height="20" fill="white"/>
</clipPath>
</defs>
</svg>
