<svg width="16" height="16" viewBox="0 0 16 16" fill="none" xmlns="http://www.w3.org/2000/svg">
<g clip-path="url(#clip0_1476_8104)">
<path d="M14.9016 1.09838C13.4371 -0.366121 11.0627 -0.366121 9.59825 1.09835L6.46406 4.23253C4.94922 5.74744 5.08947 8.16119 6.46406 9.53585C6.69425 9.76603 6.94893 9.95372 7.21787 10.1079L7.7899 9.53585C8.16509 9.1606 8.03303 8.72194 8.02628 8.40541C7.94393 8.34703 7.86384 8.28394 7.7899 8.21C7.0845 7.50466 7.05278 6.29547 7.7899 5.55835C7.89937 5.44888 10.8576 2.49066 10.924 2.42422C11.6552 1.693 12.8445 1.693 13.5757 2.42422C14.3069 3.15544 14.3069 4.34466 13.5757 5.07588L11.504 7.14753C11.5639 7.479 11.9235 8.26419 11.7385 9.55944C11.7476 9.55056 11.7584 9.54485 11.7674 9.53588L14.9016 6.40169C16.366 4.93719 16.366 2.56288 14.9016 1.09838Z" fill="#6F6F6F"/>
<path d="M14.9016 1.09838C13.4371 -0.366121 11.0627 -0.366121 9.59825 1.09835L6.46406 4.23253C4.94922 5.74744 5.08947 8.16119 6.46406 9.53585C6.69425 9.76603 6.94893 9.95372 7.21787 10.1079L7.7899 9.53585C8.16509 9.1606 8.03303 8.72194 8.02628 8.40541C7.94393 8.34703 7.86384 8.28394 7.7899 8.21C7.0845 7.50466 7.05278 6.29547 7.7899 5.55835C7.89937 5.44888 10.8576 2.49066 10.924 2.42422C11.6552 1.693 12.8445 1.693 13.5757 2.42422C14.3069 3.15544 14.3069 4.34466 13.5757 5.07588L11.504 7.14753C11.5639 7.479 11.9235 8.26419 11.7385 9.55944C11.7476 9.55056 11.7584 9.54485 11.7674 9.53588L14.9016 6.40169C16.366 4.93719 16.366 2.56288 14.9016 1.09838Z" fill="black" fill-opacity="0.2"/>
<path d="M9.77867 6.22145C9.54852 5.99126 9.2938 5.80357 9.02492 5.64941L8.45289 6.22145C8.07764 6.59663 8.2097 7.03529 8.21645 7.35182C8.29886 7.4102 8.37895 7.47329 8.45289 7.54723C9.1583 8.25263 9.19002 9.46176 8.45289 10.1989C8.34317 10.3086 5.13992 13.5119 5.07583 13.5759C4.34461 14.3072 3.15539 14.3072 2.42417 13.5759C1.69295 12.8447 1.69295 11.6555 2.42417 10.9243L4.73877 8.6097C4.67886 8.27823 4.3193 7.49304 4.50427 6.19779C4.49523 6.20666 4.48436 6.21245 4.47536 6.22141L1.09833 9.59851C-0.366109 11.063 -0.366109 13.4373 1.09833 14.9018C2.56283 16.3663 4.93711 16.3663 6.40161 14.9018L9.77867 11.5248C11.2654 10.038 11.1842 7.62691 9.77867 6.22145Z" fill="#6F6F6F"/>
<path d="M9.77867 6.22145C9.54852 5.99126 9.2938 5.80357 9.02492 5.64941L8.45289 6.22145C8.07764 6.59663 8.2097 7.03529 8.21645 7.35182C8.29886 7.4102 8.37895 7.47329 8.45289 7.54723C9.1583 8.25263 9.19002 9.46176 8.45289 10.1989C8.34317 10.3086 5.13992 13.5119 5.07583 13.5759C4.34461 14.3072 3.15539 14.3072 2.42417 13.5759C1.69295 12.8447 1.69295 11.6555 2.42417 10.9243L4.73877 8.6097C4.67886 8.27823 4.3193 7.49304 4.50427 6.19779C4.49523 6.20666 4.48436 6.21245 4.47536 6.22141L1.09833 9.59851C-0.366109 11.063 -0.366109 13.4373 1.09833 14.9018C2.56283 16.3663 4.93711 16.3663 6.40161 14.9018L9.77867 11.5248C11.2654 10.038 11.1842 7.62691 9.77867 6.22145Z" fill="black" fill-opacity="0.2"/>
</g>
<defs>
<clipPath id="clip0_1476_8104">
<rect width="16" height="16" fill="white"/>
</clipPath>
</defs>
</svg>
