<svg width="16" height="16" viewBox="0 0 16 16" fill="none" xmlns="http://www.w3.org/2000/svg">
<path d="M16.0326 14.5735L12.0883 10.6129C13.1025 9.44901 13.6581 7.98455 13.6581 6.45999C13.6581 2.89801 10.6564 0 6.96701 0C3.27758 0 0.275879 2.89801 0.275879 6.45999C0.275879 10.022 3.27758 12.92 6.96701 12.92C8.35207 12.92 9.67196 12.5167 10.8004 11.751L14.7747 15.7416C14.9408 15.9082 15.1642 16 15.4036 16C15.6303 16 15.8453 15.9166 16.0085 15.7649C16.3552 15.4428 16.3663 14.9085 16.0326 14.5735ZM6.96701 1.68522C9.69408 1.68522 11.9126 3.82713 11.9126 6.45999C11.9126 9.09286 9.69408 11.2348 6.96701 11.2348C4.23993 11.2348 2.02139 9.09286 2.02139 6.45999C2.02139 3.82713 4.23993 1.68522 6.96701 1.68522Z" fill="black"/>
</svg>
