<svg width="21" height="20" viewBox="0 0 21 20" fill="none" xmlns="http://www.w3.org/2000/svg">
<g clip-path="url(#clip0_341_5615)">
<path d="M8 5.83326H1.33333C0.873333 5.83326 0.5 5.45993 0.5 4.99993C0.5 4.53993 0.873333 4.1666 1.33333 4.1666H8C8.46 4.1666 8.83333 4.53993 8.83333 4.99993C8.83333 5.45993 8.46 5.83326 8 5.83326Z" fill="#C7C7C7"/>
<path d="M8 15.8333H1.33333C0.873333 15.8333 0.5 15.4599 0.5 14.9999C0.5 14.5399 0.873333 14.1666 1.33333 14.1666H8C8.46 14.1666 8.83333 14.5399 8.83333 14.9999C8.83333 15.4599 8.46 15.8333 8 15.8333Z" fill="#C7C7C7"/>
<path d="M8 10.8333H1.33333C0.873333 10.8333 0.5 10.46 0.5 9.99996C0.5 9.53996 0.873333 9.16663 1.33333 9.16663H8C8.46 9.16663 8.83333 9.53996 8.83333 9.99996C8.83333 10.46 8.46 10.8333 8 10.8333Z" fill="#C7C7C7"/>
<path d="M14.6667 4.5H11.3333C10.8733 4.5 10.5 4.87333 10.5 5.33333C10.5 5.79333 10.8733 6.16667 11.3333 6.16667H14.6667C16.9642 6.16667 18.8333 8.03583 18.8333 10.3333C18.8333 12.6308 16.9642 14.5 14.6667 14.5V12.625C14.6667 12.3767 14.5192 12.1517 14.2917 12.0517C14.0642 11.9533 13.7983 11.9975 13.6158 12.1667L10.6992 14.875C10.5725 14.9933 10.5 15.1592 10.5 15.3333C10.5 15.5075 10.5725 15.6733 10.6992 15.7917L13.6158 18.5C13.7342 18.6092 13.8867 18.6667 14.0417 18.6667C14.1267 18.6667 14.2108 18.6492 14.2917 18.615C14.5192 18.515 14.6667 18.29 14.6667 18.0417V16.1667C17.8833 16.1667 20.5 13.55 20.5 10.3333C20.5 7.11667 17.8833 4.5 14.6667 4.5Z" fill="#C7C7C7"/>
</g>
<defs>
<clipPath id="clip0_341_5615">
<rect width="20" height="20" fill="white" transform="translate(0.5)"/>
</clipPath>
</defs>
</svg>
