<svg width="20" height="20" viewBox="0 0 20 20" fill="none" xmlns="http://www.w3.org/2000/svg">
<path fill-rule="evenodd" clip-rule="evenodd" d="M3.70741 2.29341C3.5188 2.11125 3.2662 2.01045 3.00401 2.01273C2.74181 2.01501 2.491 2.12018 2.30559 2.30559C2.12018 2.491 2.01501 2.74181 2.01273 3.00401C2.01045 3.2662 2.11125 3.5188 2.29341 3.70741L16.2934 17.7074C16.482 17.8896 16.7346 17.9904 16.9968 17.9881C17.259 17.9858 17.5098 17.8806 17.6952 17.6952C17.8806 17.5098 17.9858 17.259 17.9881 16.9968C17.9904 16.7346 17.8896 16.482 17.7074 16.2934L16.2344 14.8204C17.7919 13.5785 18.9437 11.9003 19.5424 10.0004C18.2684 5.94341 14.4784 3.00041 10.0004 3.00041C8.43284 2.99828 6.88691 3.36626 5.48841 4.07441L3.70841 2.29341H3.70741ZM7.96841 6.55341L9.48241 8.06841C9.8215 7.97836 10.1783 7.97895 10.5171 8.07014C10.8559 8.16132 11.1648 8.33989 11.4128 8.58797C11.6609 8.83606 11.8395 9.14495 11.9307 9.48374C12.0219 9.82252 12.0225 10.1793 11.9324 10.5184L13.4464 12.0324C13.8974 11.2684 14.0816 10.3762 13.9701 9.49608C13.8585 8.61596 13.4575 7.7979 12.8302 7.17059C12.2029 6.54327 11.3848 6.1423 10.5047 6.03076C9.62461 5.91921 8.73239 6.10342 7.96841 6.55441V6.55341Z" fill="black"/>
<path d="M12.454 16.6971L9.75001 13.9921C8.77769 13.9312 7.86103 13.5175 7.17206 12.8288C6.4831 12.14 6.06918 11.2234 6.00801 10.2511L2.33501 6.57812C1.49022 7.58414 0.852357 8.74704 0.458008 10.0001C1.73201 14.0571 5.52301 17.0001 10 17.0001C10.847 17.0001 11.669 16.8951 12.454 16.6971Z" fill="black"/>
</svg>
