<svg width="40" height="38" viewBox="0 0 40 38" fill="none" xmlns="http://www.w3.org/2000/svg">
<path d="M12.8006 11.8006L18.1819 6.41967V28.6968C18.1819 29.7009 18.9959 30.5149 20.0001 30.5149C21.0042 30.5149 21.8182 29.7009 21.8182 28.6968V6.41979L27.1991 11.8006C27.5541 12.1557 28.0195 12.3332 28.4847 12.3332C28.95 12.3332 29.4153 12.1558 29.7704 11.8006C30.4804 11.0906 30.4804 9.93943 29.7704 9.22937L21.2861 0.745007C21.2435 0.702461 21.1987 0.662219 21.1523 0.624037C21.1322 0.607552 21.111 0.593249 21.0905 0.577855C21.0636 0.557613 21.0373 0.537007 21.0093 0.518219C20.9842 0.50137 20.9581 0.486825 20.9323 0.471431C20.9072 0.456279 20.8826 0.440643 20.8567 0.426704C20.8304 0.412643 20.8035 0.400885 20.7766 0.388158C20.7495 0.375431 20.7231 0.361976 20.6953 0.350461C20.6694 0.339795 20.643 0.331067 20.6167 0.321613C20.5871 0.310946 20.5579 0.299552 20.5275 0.29034C20.5013 0.282461 20.4747 0.276764 20.4484 0.270098C20.4174 0.262219 20.3866 0.253491 20.3551 0.247188C20.3248 0.241249 20.2941 0.237734 20.2636 0.233249C20.2356 0.229128 20.2078 0.223916 20.1793 0.221128C20.1233 0.215673 20.0672 0.213007 20.011 0.212643C20.0073 0.212643 20.0038 0.212158 20.0002 0.212158C19.9967 0.212158 19.993 0.212643 19.9895 0.212643C19.9333 0.212885 19.877 0.215673 19.8209 0.221128C19.7932 0.223916 19.766 0.229007 19.7385 0.233007C19.7072 0.237492 19.6759 0.241128 19.645 0.24731C19.6142 0.25337 19.5844 0.261855 19.5542 0.269491C19.5269 0.276401 19.4995 0.282461 19.4723 0.290582C19.4431 0.299431 19.4146 0.310461 19.386 0.320764C19.3587 0.330582 19.3312 0.339552 19.3043 0.350704C19.2776 0.361734 19.2522 0.374704 19.2262 0.386946C19.1984 0.400037 19.1702 0.412522 19.1429 0.427067C19.1181 0.440279 19.0949 0.45531 19.0707 0.469613C19.0437 0.485613 19.0166 0.500886 18.9902 0.518461C18.9639 0.536037 18.9393 0.555673 18.914 0.574461C18.8917 0.591067 18.869 0.606461 18.8475 0.624279C18.8032 0.660522 18.7609 0.698946 18.7203 0.739067C18.7184 0.741007 18.7163 0.742582 18.7142 0.744522L10.2294 9.22925C9.51946 9.93931 9.51934 11.0905 10.2294 11.8005C10.9393 12.5107 12.0906 12.5105 12.8006 11.8006Z" fill="#757575"/>
<path d="M38.1818 18.394C37.1777 18.394 36.3636 19.2081 36.3636 20.2122V34.1516H3.63636V20.2122C3.63636 19.2081 2.8223 18.394 1.81818 18.394C0.814061 18.394 0 19.2081 0 20.2122V35.9698C0 36.9739 0.814061 37.788 1.81818 37.788H38.1818C39.1859 37.788 40 36.9739 40 35.9698V20.2122C40 19.2081 39.1859 18.394 38.1818 18.394Z" fill="#757575"/>
</svg>
