<svg width="40" height="38" viewBox="0 0 40 38" fill="none" xmlns="http://www.w3.org/2000/svg">
<path d="M12.8005 11.8006L18.1818 6.41964V28.6967C18.1818 29.7009 18.9959 30.5149 20 30.5149C21.0041 30.5149 21.8182 29.7009 21.8182 28.6967V6.41976L27.199 11.8006C27.5541 12.1556 28.0194 12.3332 28.4846 12.3332C28.9499 12.3332 29.4153 12.1558 29.7703 11.8006C30.4804 11.0906 30.4804 9.9394 29.7703 9.22934L21.2861 0.744976C21.2434 0.702431 21.1987 0.662188 21.1522 0.624006C21.1321 0.607522 21.1109 0.593219 21.0904 0.577825C21.0635 0.557582 21.0372 0.536976 21.0092 0.518188C20.9841 0.50134 20.9581 0.486794 20.9322 0.4714C20.9072 0.456249 20.8826 0.440613 20.8566 0.426673C20.8303 0.412613 20.8034 0.400855 20.7765 0.388128C20.7495 0.3754 20.723 0.361946 20.6953 0.350431C20.6693 0.339764 20.6429 0.331037 20.6166 0.321582C20.587 0.310916 20.5578 0.299522 20.5274 0.29031C20.5012 0.282431 20.4747 0.276734 20.4484 0.270067C20.4173 0.262188 20.3865 0.253461 20.355 0.247158C20.3247 0.241219 20.2941 0.237703 20.2635 0.233219C20.2355 0.229097 20.2078 0.223885 20.1793 0.221097C20.1233 0.215643 20.0672 0.212976 20.0109 0.212612C20.0073 0.212612 20.0038 0.212128 20.0001 0.212128C19.9966 0.212128 19.993 0.212612 19.9895 0.212612C19.9332 0.212855 19.877 0.215643 19.8209 0.221097C19.7931 0.223885 19.7659 0.228976 19.7384 0.232976C19.7072 0.237461 19.6759 0.241097 19.645 0.247279C19.6142 0.25334 19.5844 0.261825 19.5542 0.269461C19.5268 0.27637 19.4994 0.282431 19.4722 0.290552C19.443 0.2994 19.4146 0.310431 19.3859 0.320734C19.3587 0.330552 19.3312 0.339522 19.3042 0.350673C19.2776 0.361703 19.2521 0.374673 19.2262 0.386916C19.1983 0.400007 19.1702 0.412491 19.1428 0.427037C19.1181 0.440249 19.0948 0.455279 19.0707 0.469582C19.0436 0.485582 19.0165 0.500855 18.9902 0.518431C18.9639 0.536007 18.9393 0.555643 18.9139 0.574431C18.8916 0.591037 18.869 0.606431 18.8474 0.624249C18.8032 0.660491 18.7609 0.698916 18.7202 0.739037C18.7183 0.740976 18.7162 0.742552 18.7142 0.744491L10.2293 9.22922C9.5194 9.93928 9.51928 11.0904 10.2293 11.8005C10.9393 12.5107 12.0906 12.5104 12.8005 11.8006Z" fill="#0C3C60"/>
<path d="M38.1818 18.3939C37.1777 18.3939 36.3636 19.208 36.3636 20.2121V34.1515H3.63636V20.2121C3.63636 19.208 2.8223 18.3939 1.81818 18.3939C0.814061 18.3939 0 19.208 0 20.2121V35.9697C0 36.9738 0.814061 37.7879 1.81818 37.7879H38.1818C39.1859 37.7879 40 36.9738 40 35.9697V20.2121C40 19.208 39.1859 18.3939 38.1818 18.3939Z" fill="#0C3C60"/>
</svg>
